<?xml version="1.0" encoding="UTF-8" standalone="no"?>
<svg width="872px" height="371px" viewBox="0 0 872 371" version="1.1" xmlns="http://www.w3.org/2000/svg" xmlns:xlink="http://www.w3.org/1999/xlink" xmlns:sketch="http://www.bohemiancoding.com/sketch/ns">
    <!-- Generator: Sketch 3.2.2 (9983) - http://www.bohemiancoding.com/sketch -->
    <title>gitflow</title>
    <desc>Created with Sketch.</desc>
    <defs></defs>
    <g id="Page-1" stroke="none" stroke-width="1" fill="none" fill-rule="evenodd" sketch:type="MSPage">
        <path d="M816.5,169.75 L814.9,169.75 L814.9,174.05 L813.4,174.05 L813.4,163.45 L817.4,163.45 C819.4,163.45 820.7,164.85 820.7,166.65 C820.7,168.15 819.7,169.35 818.1,169.65 L820.6,174.15 L818.9,174.15 L816.5,169.75 L816.5,169.75 Z M817.2,168.45 C818.4,168.45 819.2,167.75 819.2,166.65 C819.2,165.55 818.4,164.85 817.2,164.85 L815,164.85 L815,168.45 L817.2,168.45 L817.2,168.45 Z M829.3,172.05 C828.9,173.35 827.7,174.35 826.1,174.35 C824.2,174.35 822.5,172.95 822.5,170.45 C822.5,168.15 824.1,166.65 826,166.65 C828.2,166.65 829.5,168.15 829.5,170.45 L829.5,170.95 L824.1,170.95 C824.1,172.25 825.1,173.15 826.3,173.15 C827.5,173.15 828.1,172.55 828.3,171.65 L829.3,172.05 L829.3,172.05 Z M827.9,169.75 C827.9,168.75 827.2,167.95 825.9,167.95 C824.7,167.95 824,168.85 823.9,169.75 L827.9,169.75 L827.9,169.75 Z M831.9,174.05 L831.9,163.25 L833.3,163.25 L833.3,174.15 L831.9,174.15 L831.9,174.05 Z M842.7,172.05 C842.3,173.35 841.1,174.35 839.5,174.35 C837.6,174.35 835.9,172.95 835.9,170.45 C835.9,168.15 837.5,166.65 839.4,166.65 C841.6,166.65 842.9,168.15 842.9,170.45 L842.9,170.95 L837.5,170.95 C837.5,172.25 838.5,173.15 839.7,173.15 C840.9,173.15 841.5,172.55 841.7,171.65 L842.7,172.05 L842.7,172.05 Z M841.3,169.75 C841.3,168.75 840.6,167.95 839.3,167.95 C838.1,167.95 837.4,168.85 837.3,169.75 L841.3,169.75 L841.3,169.75 Z M847.1,169.95 L849.1,169.65 C849.5,169.55 849.7,169.35 849.7,169.15 C849.7,168.45 849.2,167.85 848.1,167.85 C847.1,167.85 846.6,168.45 846.5,169.35 L845.2,169.05 C845.4,167.65 846.6,166.75 848.2,166.75 C850.4,166.75 851.2,167.95 851.2,169.35 L851.2,172.95 C851.2,173.55 851.3,173.95 851.3,174.15 L849.7,174.15 C849.7,173.95 849.6,173.65 849.6,173.15 C849.3,173.65 848.6,174.35 847.3,174.35 C845.8,174.35 844.9,173.35 844.9,172.15 C844.9,170.85 845.8,170.15 847.1,169.95 L847.1,169.95 Z M849.6,170.95 L849.6,170.65 L847.4,170.95 C846.8,171.05 846.4,171.35 846.4,172.05 C846.4,172.55 846.9,173.05 847.6,173.05 C848.6,173.15 849.6,172.55 849.6,170.95 L849.6,170.95 Z M854.5,171.75 C854.6,172.55 855.2,173.05 856.2,173.05 C857,173.05 857.4,172.55 857.4,172.05 C857.4,171.65 857.1,171.25 856.5,171.15 L855.3,170.85 C854.2,170.65 853.5,169.85 853.5,168.85 C853.5,167.65 854.7,166.55 856.1,166.55 C858.1,166.55 858.7,167.85 858.8,168.45 L857.6,168.95 C857.5,168.55 857.2,167.75 856.1,167.75 C855.4,167.75 854.9,168.25 854.9,168.75 C854.9,169.15 855.2,169.55 855.7,169.65 L856.9,169.95 C858.2,170.25 858.9,171.05 858.9,172.05 C858.9,173.05 858,174.25 856.3,174.25 C854.3,174.25 853.5,172.95 853.4,172.15 L854.5,171.75 L854.5,171.75 Z M867.7,172.05 C867.3,173.35 866.1,174.35 864.5,174.35 C862.6,174.35 860.9,172.95 860.9,170.45 C860.9,168.15 862.5,166.65 864.3,166.65 C866.5,166.65 867.8,168.15 867.8,170.45 L867.8,170.95 L862.4,170.95 C862.4,172.25 863.4,173.15 864.6,173.15 C865.8,173.15 866.4,172.55 866.6,171.65 L867.7,172.05 L867.7,172.05 Z M866.2,169.75 C866.2,168.75 865.5,167.95 864.2,167.95 C863,167.95 862.3,168.85 862.2,169.75 L866.2,169.75 L866.2,169.75 Z" id="Shape" fill="#404040" sketch:type="MSShapeGroup"></path>
        <path d="M813,235.65 L813,225.05 L816.7,225.05 C819.4,225.05 821.8,226.85 821.8,230.35 C821.8,233.85 819.4,235.65 816.7,235.65 L813,235.65 L813,235.65 Z M816.7,234.35 C818.7,234.35 820.3,233.05 820.3,230.35 C820.3,227.65 818.7,226.35 816.7,226.35 L814.5,226.35 L814.5,234.35 L816.7,234.35 L816.7,234.35 Z M830.7,233.65 C830.3,234.95 829.1,235.95 827.5,235.95 C825.6,235.95 823.9,234.55 823.9,232.05 C823.9,229.75 825.5,228.25 827.4,228.25 C829.6,228.25 830.9,229.75 830.9,232.05 L830.9,232.55 L825.5,232.55 C825.5,233.85 826.5,234.75 827.7,234.75 C828.9,234.75 829.5,234.15 829.7,233.25 L830.7,233.65 L830.7,233.65 Z M829.3,231.35 C829.3,230.35 828.6,229.55 827.3,229.55 C826.1,229.55 825.4,230.45 825.3,231.35 L829.3,231.35 L829.3,231.35 Z M836.8,235.65 L835.4,235.65 L832.5,228.45 L834.1,228.45 L836.2,234.05 L838.3,228.45 L839.8,228.45 L836.8,235.65 L836.8,235.65 Z M847.5,233.65 C847.1,234.95 845.9,235.95 844.3,235.95 C842.4,235.95 840.7,234.55 840.7,232.05 C840.7,229.75 842.3,228.25 844.2,228.25 C846.4,228.25 847.7,229.75 847.7,232.05 L847.7,232.55 L842.3,232.55 C842.3,233.85 843.3,234.75 844.5,234.75 C845.7,234.75 846.3,234.15 846.5,233.25 L847.5,233.65 L847.5,233.65 Z M846.1,231.35 C846.1,230.35 845.4,229.55 844.1,229.55 C842.9,229.55 842.2,230.45 842.1,231.35 L846.1,231.35 L846.1,231.35 Z M850.1,235.65 L850.1,224.85 L851.5,224.85 L851.5,235.75 L850.1,235.75 L850.1,235.65 Z M861.4,232.05 C861.4,234.25 859.9,235.85 857.7,235.85 C855.5,235.85 854,234.25 854,232.05 C854,229.85 855.5,228.25 857.7,228.25 C859.9,228.25 861.4,229.85 861.4,232.05 L861.4,232.05 Z M860,232.05 C860,230.35 859,229.45 857.8,229.45 C856.6,229.45 855.6,230.35 855.6,232.05 C855.6,233.75 856.7,234.65 857.8,234.65 C858.9,234.65 860,233.75 860,232.05 L860,232.05 Z M864,238.55 L864,228.45 L865.4,228.45 L865.4,229.55 C865.8,228.85 866.6,228.25 867.8,228.25 C870,228.25 871.1,229.95 871.1,232.05 C871.1,234.15 869.9,235.85 867.7,235.85 C866.6,235.85 865.7,235.35 865.4,234.65 L865.4,238.45 L864,238.45 L864,238.55 Z M867.5,229.55 C866.2,229.55 865.4,230.65 865.4,232.05 C865.4,233.55 866.3,234.65 867.5,234.65 C868.8,234.65 869.6,233.55 869.6,232.05 C869.6,230.65 868.8,229.55 867.5,229.55 L867.5,229.55 Z" id="Shape" fill="#404040" sketch:type="MSShapeGroup"></path>
        <path d="M823.4,112.45 L823.4,104.15 L819.8,112.45 L818.5,112.45 L814.9,104.15 L814.9,112.45 L813.4,112.45 L813.4,101.85 L815.4,101.85 L819.1,110.55 L822.9,101.85 L824.9,101.85 L824.9,112.45 L823.4,112.45 L823.4,112.45 Z M829.8,108.35 L831.8,108.05 C832.2,107.95 832.4,107.75 832.4,107.55 C832.4,106.85 831.9,106.25 830.8,106.25 C829.8,106.25 829.3,106.85 829.2,107.75 L827.8,107.45 C828,106.05 829.2,105.15 830.8,105.15 C833,105.15 833.8,106.35 833.8,107.75 L833.8,111.35 C833.8,111.95 833.9,112.35 833.9,112.55 L832.5,112.55 C832.5,112.35 832.4,112.05 832.4,111.55 C832.1,112.05 831.4,112.75 830.1,112.75 C828.6,112.75 827.7,111.75 827.7,110.55 C827.6,109.25 828.6,108.55 829.8,108.35 L829.8,108.35 Z M832.3,109.35 L832.3,109.05 L830.1,109.35 C829.5,109.45 829.1,109.75 829.1,110.45 C829.1,110.95 829.6,111.45 830.3,111.45 C831.4,111.55 832.3,110.95 832.3,109.35 L832.3,109.35 Z M837.3,110.15 C837.4,110.95 838,111.45 839,111.45 C839.8,111.45 840.2,110.95 840.2,110.45 C840.2,110.05 839.9,109.65 839.3,109.55 L838.1,109.25 C837,109.05 836.3,108.25 836.3,107.25 C836.3,106.05 837.5,104.95 838.9,104.95 C840.9,104.95 841.5,106.25 841.6,106.85 L840.4,107.35 C840.3,106.95 840,106.15 838.9,106.15 C838.2,106.15 837.7,106.65 837.7,107.15 C837.7,107.55 838,107.95 838.5,108.05 L839.7,108.35 C841,108.65 841.7,109.45 841.7,110.45 C841.7,111.45 840.8,112.65 839.1,112.65 C837.1,112.65 836.3,111.35 836.2,110.55 L837.3,110.15 L837.3,110.15 Z M846.1,105.25 L847.7,105.25 L847.7,106.55 L846.1,106.55 L846.1,110.35 C846.1,111.05 846.4,111.35 847.1,111.35 C847.3,111.35 847.5,111.35 847.7,111.25 L847.7,112.45 C847.6,112.45 847.2,112.55 846.7,112.55 C845.5,112.55 844.7,111.75 844.7,110.45 L844.7,106.45 L843.3,106.45 L843.3,105.15 L843.7,105.15 C844.5,105.15 844.8,104.65 844.8,104.05 L844.8,102.85 L846.1,102.85 L846.1,105.25 L846.1,105.25 Z M856.5,110.45 C856.1,111.75 854.9,112.75 853.3,112.75 C851.4,112.75 849.7,111.35 849.7,108.85 C849.7,106.55 851.3,105.05 853.2,105.05 C855.4,105.05 856.7,106.55 856.7,108.85 L856.7,109.35 L851.3,109.35 C851.3,110.65 852.3,111.55 853.5,111.55 C854.7,111.55 855.3,110.95 855.5,110.05 L856.5,110.45 L856.5,110.45 Z M855.1,108.15 C855.1,107.15 854.4,106.35 853.1,106.35 C851.9,106.35 851.2,107.25 851.1,108.15 L855.1,108.15 L855.1,108.15 Z M863.1,106.65 L862.5,106.65 C861.3,106.65 860.5,107.25 860.5,108.85 L860.5,112.45 L859.1,112.45 L859.1,105.25 L860.5,105.25 L860.5,106.55 C861,105.45 861.9,105.15 862.7,105.15 L863.2,105.15 L863.2,106.65 L863.1,106.65 Z" id="Shape" fill="#404040" sketch:type="MSShapeGroup"></path>
        <path d="M813.4,299.65 L813.4,289.05 L819.9,289.05 L819.9,290.45 L814.9,290.45 L814.9,293.85 L819.4,293.85 L819.4,295.25 L814.9,295.25 L814.9,299.75 L813.4,299.75 L813.4,299.65 Z M828,297.65 C827.6,298.95 826.4,299.95 824.8,299.95 C822.9,299.95 821.2,298.55 821.2,296.05 C821.2,293.75 822.8,292.25 824.7,292.25 C826.9,292.25 828.2,293.75 828.2,296.05 L828.2,296.55 L822.8,296.55 C822.8,297.85 823.8,298.75 825,298.75 C826.2,298.75 826.8,298.15 827,297.25 L828,297.65 L828,297.65 Z M826.6,295.35 C826.6,294.35 825.9,293.55 824.6,293.55 C823.4,293.55 822.7,294.45 822.6,295.35 L826.6,295.35 L826.6,295.35 Z M832.4,295.55 L834.3,295.25 C834.7,295.15 834.9,294.95 834.9,294.75 C834.9,294.05 834.4,293.45 833.3,293.45 C832.3,293.45 831.8,294.05 831.7,294.95 L830.4,294.65 C830.5,293.25 831.8,292.35 833.4,292.35 C835.6,292.35 836.4,293.55 836.4,294.95 L836.4,298.45 C836.4,299.05 836.5,299.45 836.5,299.65 L835,299.65 C835,299.45 834.9,299.15 834.9,298.65 C834.6,299.15 833.9,299.85 832.6,299.85 C831.1,299.85 830.2,298.85 830.2,297.65 C830.2,296.45 831.1,295.75 832.4,295.55 L832.4,295.55 Z M834.9,296.55 L834.9,296.25 L832.7,296.55 C832.1,296.65 831.7,296.95 831.7,297.65 C831.7,298.15 832.1,298.65 832.9,298.65 C833.9,298.75 834.9,298.15 834.9,296.55 L834.9,296.55 Z M841.1,292.45 L842.7,292.45 L842.7,293.75 L841.1,293.75 L841.1,297.45 C841.1,298.15 841.4,298.45 842.1,298.45 C842.3,298.45 842.5,298.45 842.7,298.35 L842.7,299.55 C842.6,299.55 842.2,299.65 841.7,299.65 C840.5,299.65 839.7,298.85 839.7,297.55 L839.7,293.55 L838.3,293.55 L838.3,292.45 L838.7,292.45 C839.5,292.45 839.8,291.95 839.8,291.35 L839.8,290.15 L841.1,290.15 L841.1,292.45 L841.1,292.45 Z M847.9,299.85 C846.2,299.85 845.2,298.55 845.2,296.95 L845.2,292.45 L846.6,292.45 L846.6,296.75 C846.6,297.75 847.1,298.65 848.2,298.65 C849.3,298.65 849.9,297.85 849.9,296.85 L849.9,292.45 L851.3,292.45 L851.3,298.35 C851.3,298.95 851.3,299.45 851.4,299.65 L850,299.65 C850,299.45 849.9,299.05 849.9,298.75 C849.7,299.55 848.8,299.85 847.9,299.85 L847.9,299.85 Z M858.5,293.85 L857.9,293.85 C856.7,293.85 855.9,294.45 855.9,296.05 L855.9,299.65 L854.5,299.65 L854.5,292.45 L855.9,292.45 L855.9,293.75 C856.4,292.65 857.3,292.35 858.1,292.35 L858.6,292.35 L858.6,293.85 L858.5,293.85 Z M867,297.65 C866.6,298.95 865.4,299.95 863.8,299.95 C861.9,299.95 860.2,298.55 860.2,296.05 C860.2,293.75 861.8,292.25 863.7,292.25 C865.9,292.25 867.2,293.75 867.2,296.05 L867.2,296.55 L861.8,296.55 C861.8,297.85 862.8,298.75 864,298.75 C865.2,298.75 865.8,298.15 866,297.25 L867,297.65 L867,297.65 Z M865.6,295.35 C865.6,294.35 864.9,293.55 863.6,293.55 C862.4,293.55 861.7,294.45 861.6,295.35 L865.6,295.35 L865.6,295.35 Z" id="Shape" fill="#858585" sketch:type="MSShapeGroup"></path>
        <path d="M813.8,361.05 L813.8,350.45 L820.3,350.45 L820.3,351.85 L815.3,351.85 L815.3,355.25 L819.8,355.25 L819.8,356.65 L815.3,356.65 L815.3,361.15 L813.8,361.15 L813.8,361.05 Z M828.4,359.05 C828,360.35 826.8,361.35 825.2,361.35 C823.3,361.35 821.6,359.95 821.6,357.45 C821.6,355.15 823.2,353.65 825.1,353.65 C827.3,353.65 828.6,355.15 828.6,357.45 L828.6,357.95 L823,357.95 C823,359.25 824,360.15 825.2,360.15 C826.4,360.15 827,359.55 827.2,358.65 L828.4,359.05 L828.4,359.05 Z M827,356.75 C827,355.75 826.3,354.95 825,354.95 C823.8,354.95 823.1,355.85 823,356.75 L827,356.75 L827,356.75 Z M832.7,356.95 L834.7,356.65 C835.1,356.55 835.3,356.35 835.3,356.15 C835.3,355.45 834.8,354.85 833.7,354.85 C832.7,354.85 832.2,355.45 832.1,356.35 L830.8,356.05 C831,354.65 832.2,353.75 833.8,353.75 C836,353.75 836.8,354.95 836.8,356.35 L836.8,359.85 C836.8,360.45 836.9,360.85 836.9,361.05 L835.5,361.05 C835.5,360.85 835.4,360.55 835.4,360.05 C835.1,360.55 834.4,361.25 833.1,361.25 C831.6,361.25 830.7,360.25 830.7,359.05 C830.5,357.85 831.5,357.15 832.7,356.95 L832.7,356.95 Z M835.2,357.95 L835.2,357.65 L833,357.95 C832.4,358.05 832,358.35 832,359.05 C832,359.55 832.5,360.05 833.2,360.05 C834.3,360.15 835.2,359.55 835.2,357.95 L835.2,357.95 Z M841.5,353.85 L843.1,353.85 L843.1,355.15 L841.5,355.15 L841.5,358.85 C841.5,359.55 841.8,359.85 842.5,359.85 C842.7,359.85 842.9,359.85 843.1,359.75 L843.1,360.95 C843,360.95 842.6,361.05 842.1,361.05 C840.9,361.05 840.1,360.25 840.1,358.95 L840.1,354.95 L838.7,354.95 L838.7,353.85 L839.1,353.85 C839.9,353.85 840.2,353.35 840.2,352.75 L840.2,351.55 L841.5,351.55 L841.5,353.85 L841.5,353.85 Z M848.3,361.25 C846.6,361.25 845.6,359.95 845.6,358.35 L845.6,353.85 L847,353.85 L847,358.15 C847,359.15 847.5,360.05 848.6,360.05 C849.7,360.05 850.3,359.25 850.3,358.25 L850.3,353.85 L851.7,353.85 L851.7,359.75 C851.7,360.35 851.7,360.85 851.8,361.05 L850.4,361.05 C850.4,360.85 850.3,360.45 850.3,360.15 C850,360.95 849.1,361.25 848.3,361.25 L848.3,361.25 Z M858.9,355.25 L858.3,355.25 C857.1,355.25 856.3,355.85 856.3,357.45 L856.3,361.05 L854.9,361.05 L854.9,353.85 L856.3,353.85 L856.3,355.15 C856.8,354.05 857.7,353.75 858.5,353.75 L859,353.75 L859,355.25 L858.9,355.25 Z M867.4,359.05 C867,360.35 865.8,361.35 864.2,361.35 C862.3,361.35 860.6,359.95 860.6,357.45 C860.6,355.15 862.2,353.65 864.1,353.65 C866.3,353.65 867.6,355.15 867.6,357.45 L867.6,357.95 L862.2,357.95 C862.2,359.25 863.2,360.15 864.4,360.15 C865.6,360.15 866.2,359.55 866.4,358.65 L867.4,359.05 L867.4,359.05 Z M865.9,356.75 C865.9,355.75 865.2,354.95 863.9,354.95 C862.7,354.95 862,355.85 861.9,356.75 L865.9,356.75 L865.9,356.75 Z" id="Shape" fill="#858585" sketch:type="MSShapeGroup"></path>
        <path d="M422.3,261.1 C422.3,244.1 436.1,230.3 453.1,230.3" id="Shape" stroke="#404040" stroke-width="2" sketch:type="MSShapeGroup"></path>
        <path d="M252,261.1 C252,244.1 238.2,230.3 221.2,230.3 M162.3,353.4 L376.3,353.4" id="Shape" stroke="#404040" stroke-width="2" sketch:type="MSShapeGroup"></path>
        <circle id="Oval" stroke="#404040" stroke-width="2" fill="#FF3333" sketch:type="MSShapeGroup" cx="313.7" cy="353.4" r="15.8"></circle>
        <circle id="Oval" stroke="#404040" stroke-width="2" fill="#FF3333" sketch:type="MSShapeGroup" cx="360.5" cy="353.4" r="15.8"></circle>
        <circle id="Oval" stroke="#404040" stroke-width="2" fill="#FF3333" sketch:type="MSShapeGroup" cx="240.3" cy="353.4" r="15.8"></circle>
        <path d="M774.1,230 L177.7,230" id="Shape" stroke="#404040" stroke-width="2" sketch:type="MSShapeGroup"></path>
        <circle id="Oval" stroke="#404040" stroke-width="2" fill="#0066FF" sketch:type="MSShapeGroup" cx="483.1" cy="230.4" r="15.8"></circle>
        <circle id="Oval" stroke="#404040" stroke-width="2" fill="#0066FF" sketch:type="MSShapeGroup" cx="313.7" cy="230.4" r="15.8"></circle>
        <circle id="Oval" stroke="#404040" stroke-width="2" fill="#0066FF" sketch:type="MSShapeGroup" cx="774.1" cy="230.4" r="15.8"></circle>
        <path d="M252,261.1 C252,278.1 265.8,291.9 282.8,291.9 L390.7,291.9" id="Shape" stroke="#404040" stroke-width="2" sketch:type="MSShapeGroup"></path>
        <circle id="Oval" stroke="#404040" stroke-width="2" fill="#FF3333" sketch:type="MSShapeGroup" cx="313.7" cy="291.9" r="15.8"></circle>
        <circle id="Oval" stroke="#404040" stroke-width="2" fill="#FF3333" sketch:type="MSShapeGroup" cx="360.5" cy="291.9" r="15.8"></circle>
        <path d="M390.6,291.9 L391.5,291.9 C408.5,291.9 422.2,278.1 422.2,261.1" id="Shape" stroke="#404040" stroke-width="2" sketch:type="MSShapeGroup"></path>
        <path d="M57.1,168.9 L19.7,168.9" id="Shape" stroke="#CCCCCC" stroke-width="4" stroke-dasharray="0,14.9858" sketch:type="MSShapeGroup"></path>
        <path d="M526.8,168.9 L99.4,168.9" id="Shape" stroke="#CCCCCC" stroke-width="4" stroke-dasharray="0,14.0118" sketch:type="MSShapeGroup"></path>
        <path d="M759.3,168.9 L707.6,168.9" id="Shape" stroke="#CCCCCC" stroke-width="4" stroke-dasharray="0,14.7877" sketch:type="MSShapeGroup"></path>
        <path d="M759.1,107.4 L676.8,107.4" id="Shape" stroke="#CCCCCC" stroke-width="4" stroke-dasharray="0,14.9632" sketch:type="MSShapeGroup"></path>
        <path d="M82.8,138.1 C82.8,121.1 69,107.3 52,107.3" id="Shape" stroke="#404040" stroke-width="2" sketch:type="MSShapeGroup"></path>
        <circle id="Oval" stroke="#404040" stroke-width="2" fill="#FF3333" sketch:type="MSShapeGroup" cx="146.6" cy="353.4" r="15.8"></circle>
        <path d="M642.9,107 L37.1,107" id="Shape" stroke="#404040" stroke-width="2" sketch:type="MSShapeGroup"></path>
        <circle id="Oval" stroke="#404040" stroke-width="2" fill="#CC3300" sketch:type="MSShapeGroup" cx="21.3" cy="107.4" r="15.8"></circle>
        <circle id="Oval" stroke="#404040" stroke-width="2" fill="#CC3300" sketch:type="MSShapeGroup" cx="642.9" cy="107.4" r="15.8"></circle>
        <path d="M1.9,1.9 L44.4,1.9 L44.4,39.4 L1.9,39.4 L1.9,1.9 Z" id="Shape" stroke="#404040" stroke-width="2" fill="#CC3300" sketch:type="MSShapeGroup"></path>
        <path d="M15.75,24.75 L14.55,24.75 L12.05,18.45 L13.45,18.45 L15.25,23.25 L17.05,18.45 L18.35,18.45 L15.75,24.75 L15.75,24.75 Z M20.45,17.55 C20.95,16.75 21.85,16.15 23.05,16.15 C24.25,16.15 25.05,16.65 25.65,17.55 C26.25,18.35 26.45,19.45 26.45,20.65 C26.45,21.85 26.25,22.85 25.65,23.75 C25.15,24.55 24.25,25.15 23.05,25.15 C21.85,25.15 21.05,24.65 20.45,23.75 C19.85,22.95 19.65,21.85 19.65,20.65 C19.65,19.45 19.95,18.35 20.45,17.55 L20.45,17.55 Z M21.75,23.25 C22.05,23.55 22.45,23.75 23.05,23.75 C23.65,23.75 24.05,23.55 24.35,23.25 C24.85,22.75 25.05,21.85 25.05,20.55 C25.05,19.25 24.85,18.35 24.35,17.85 C24.05,17.55 23.65,17.35 23.05,17.35 C22.45,17.35 22.05,17.55 21.75,17.85 C21.25,18.35 21.05,19.25 21.05,20.55 C21.05,21.85 21.25,22.75 21.75,23.25 L21.75,23.25 Z M28.95,23.05 C29.45,23.05 29.85,23.45 29.85,23.95 C29.85,24.45 29.45,24.85 28.95,24.85 C28.45,24.85 28.05,24.45 28.05,23.95 C28.05,23.45 28.45,23.05 28.95,23.05 L28.95,23.05 Z M32.95,24.75 L32.95,18.85 L30.95,18.85 L30.95,17.95 C32.15,17.95 32.95,17.25 33.15,16.35 L34.25,16.35 L34.25,24.75 L32.95,24.75 L32.95,24.75 Z" id="Shape" fill="#FFFFFF" sketch:type="MSShapeGroup"></path>
        <path d="M19.75,73.5 L19.75,55.9 M27.85,67 L19.75,75.1 L11.55,67" id="Shape" stroke="#404040" stroke-width="2" sketch:type="MSShapeGroup"></path>
        <path d="M621.6,1.9 L664.1,1.9 L664.1,39.4 L621.6,39.4 L621.6,1.9 Z" id="Shape" stroke="#404040" stroke-width="2" fill="#CC3300" sketch:type="MSShapeGroup"></path>
        <path d="M634.7,25.1 L633.5,25.1 L631,18.8 L632.4,18.8 L634.2,23.6 L636,18.8 L637.3,18.8 L634.7,25.1 L634.7,25.1 Z M640.3,25.1 L640.3,19.2 L638.3,19.2 L638.3,18.3 C639.5,18.3 640.3,17.6 640.5,16.7 L641.6,16.7 L641.6,25.1 L640.3,25.1 L640.3,25.1 Z M644.9,23.4 C645.4,23.4 645.8,23.8 645.8,24.3 C645.8,24.8 645.4,25.2 644.9,25.2 C644.4,25.2 644,24.8 644,24.3 C644,23.8 644.3,23.4 644.9,23.4 L644.9,23.4 Z M648.5,17.9 C649,17.1 649.9,16.5 651.1,16.5 C652.3,16.5 653.1,17 653.7,17.9 C654.3,18.7 654.5,19.8 654.5,21 C654.5,22.2 654.3,23.2 653.7,24.1 C653.2,24.9 652.3,25.5 651.1,25.5 C649.9,25.5 649.1,25 648.5,24.1 C647.9,23.3 647.7,22.2 647.7,21 C647.7,19.8 647.9,18.7 648.5,17.9 L648.5,17.9 Z M649.7,23.6 C650,23.9 650.4,24.1 651,24.1 C651.6,24.1 652,23.9 652.3,23.6 C652.8,23.1 653,22.2 653,20.9 C653,19.6 652.8,18.7 652.3,18.2 C652,17.9 651.6,17.7 651,17.7 C650.4,17.7 650,17.9 649.7,18.2 C649.2,18.7 649,19.6 649,20.9 C649,22.2 649.2,23.1 649.7,23.6 L649.7,23.6 Z" id="Shape" fill="#FFFFFF" sketch:type="MSShapeGroup"></path>
        <path d="M642.9,73.5 L642.9,55.9 M651,67 L642.9,75.1 L634.8,67" id="Shape" stroke="#404040" stroke-width="2" sketch:type="MSShapeGroup"></path>
        <path d="M62.3,230.4 L18.4,230.4" id="Shape" stroke="#CCCCCC" stroke-width="4" stroke-dasharray="0,12.543" sketch:type="MSShapeGroup"></path>
        <path d="M244.8,291.9 L19,291.9" id="Shape" stroke="#CCCCCC" stroke-width="4" stroke-dasharray="0,13.6844" sketch:type="MSShapeGroup"></path>
        <path d="M760.3,291.9 L422.9,291.9" id="Shape" stroke="#CCCCCC" stroke-width="4" stroke-dasharray="0,13.7717" sketch:type="MSShapeGroup"></path>
        <path d="M107.7,353.4 L19,353.4" id="Shape" stroke="#CCCCCC" stroke-width="4" stroke-dasharray="0,13.6492" sketch:type="MSShapeGroup"></path>
        <path d="M760.2,353.4 L391.7,353.4" id="Shape" stroke="#CCCCCC" stroke-width="4" stroke-dasharray="0,13.907" sketch:type="MSShapeGroup"></path>
        <path d="M82.8,137.7 L82.8,199.6 C82.8,216.6 96.6,230.4 113.6,230.4 L209.3,230.4" id="Shape" stroke="#404040" stroke-width="2" sketch:type="MSShapeGroup"></path>
        <circle id="Oval" stroke="#404040" stroke-width="2" fill="#0066FF" sketch:type="MSShapeGroup" cx="193.5" cy="230.4" r="15.7"></circle>
        <circle id="Oval" stroke="#404040" stroke-width="2" fill="#0066FF" sketch:type="MSShapeGroup" cx="146.6" cy="230.4" r="15.8"></circle>
        <path d="M534.3,199.6 C534.3,216.6 520.5,230.4 503.6,230.4 M704.6,199.6 C704.6,216.6 718.4,230.4 735.4,230.4 L758.4,230.4 M565.9,168.9 L565,168.9 C548,168.9 534.2,182.7 534.2,199.7 M704.6,199.6 C704.6,182.6 690.8,168.8 673.8,168.8 L565.9,168.8" id="Shape" stroke="#404040" stroke-width="2" sketch:type="MSShapeGroup"></path>
        <circle id="Oval" stroke="#404040" stroke-width="2" fill="#339966" sketch:type="MSShapeGroup" cx="642.9" cy="168.9" r="15.8"></circle>
        <circle id="Oval" stroke="#404040" stroke-width="2" fill="#339966" sketch:type="MSShapeGroup" cx="596" cy="168.9" r="15.8"></circle>
        <path d="M146.6,246.1 L146.6,337.6 M642.9,153.1 L642.9,123.1" id="Shape" stroke="#404040" stroke-width="2" sketch:type="MSShapeGroup"></path>
    </g>
</svg>